HIERARCHY
ROOT Hips
{
	OFFSET	0.00	0.00	0.00
	CHANNELS 6 Xposition Yposition Zposition Zrotation Xrotation Yrotation
	JOINT LeftUpLeg
	{
		OFFSET	 0.126116	-0.065224	 0.014019
		CHANNELS 3 Zrotation Xrotation Yrotation
		JOINT LeftLeg
		{
			OFFSET	 0.000000	 0.569914	 0.000000
			CHANNELS 3 Zrotation Xrotation Yrotation
			JOINT LeftFoot
			{
				OFFSET	 0.000000	 0.544423	 0.000000
				CHANNELS 3 Zrotation Xrotation Yrotation
				JOINT LeftToeBase
				{
					OFFSET	 0.000000	 0.207117	 0.000000
					CHANNELS 3 Zrotation Xrotation Yrotation
					End Site
					{
						OFFSET	 0.000000	 0.207117	 0.000000
					}
				}
			}
		}
	}
	JOINT RightUpLeg
	{
		OFFSET	-0.124023	-0.065224	 0.008373
		CHANNELS 3 Zrotation Xrotation Yrotation
		JOINT RightLeg
		{
			OFFSET	 0.000000	 0.570047	 0.000000
			CHANNELS 3 Zrotation Xrotation Yrotation
			JOINT RightFoot
			{
				OFFSET	 0.000000	 0.544354	 0.000000
				CHANNELS 3 Zrotation Xrotation Yrotation
				JOINT RightToeBase
				{
					OFFSET	 0.000000	 0.207540	 0.000000
					CHANNELS 3 Zrotation Xrotation Yrotation
					End Site
					{
						OFFSET	 0.000000	 0.207540	 0.000000
					}
				}
			}
		}
	}
	JOINT Spine
	{
		OFFSET	 0.000184	 0.117403	 0.007763
		CHANNELS 3 Zrotation Xrotation Yrotation
		JOINT Spine1
		{
			OFFSET	 0.000000	 0.137269	 0.000000
			CHANNELS 3 Zrotation Xrotation Yrotation
			JOINT Spine2
			{
				OFFSET	 0.000000	 0.156879	 0.000000
				CHANNELS 3 Zrotation Xrotation Yrotation
				JOINT LeftShoulder
				{
					OFFSET	 0.080501	 0.160143	 0.002496
					CHANNELS 3 Zrotation Xrotation Yrotation
					JOINT LeftArm
					{
						OFFSET	 0.000000	 0.164363	 0.000000
						CHANNELS 3 Zrotation Xrotation Yrotation
						JOINT LeftForeArm
						{
							OFFSET	 0.000000	 0.364576	 0.000000
							CHANNELS 3 Zrotation Xrotation Yrotation
							JOINT LeftHand
							{
								OFFSET	 0.000000	 0.360812	 0.000000
								CHANNELS 3 Zrotation Xrotation Yrotation
								JOINT LeftHandIndex1
								{
									OFFSET	 0.000000	 0.086006	 0.000000
									CHANNELS 3 Zrotation Xrotation Yrotation
									JOINT LeftHandIndex2
									{
										OFFSET	 0.000000	 0.047237	 0.000000
										CHANNELS 3 Zrotation Xrotation Yrotation
										JOINT LeftHandIndex3
										{
											OFFSET	-0.004284	 0.038165	 0.000551
											CHANNELS 3 Zrotation Xrotation Yrotation
											End Site
											{
												OFFSET	-0.004284	 0.038165	 0.000551
											}
										}
									}
								}
							}
						}
					}
				}
				JOINT Neck
				{
					OFFSET	 0.000000	 0.176489	 0.000000
					CHANNELS 3 Zrotation Xrotation Yrotation
					JOINT Head
					{
						OFFSET	 0.000000	 0.077941	 0.001747
						CHANNELS 3 Zrotation Xrotation Yrotation
						End Site
						{
							OFFSET	 0.000000	 0.077941	 0.001747
						}
					}
				}
				JOINT RightShoulder
				{
					OFFSET	-0.080363	 0.159706	-0.000306
					CHANNELS 3 Zrotation Xrotation Yrotation
					JOINT RightArm
					{
						OFFSET	 0.000000	 0.164196	 0.000000
						CHANNELS 3 Zrotation Xrotation Yrotation
						JOINT RightForeArm
						{
							OFFSET	 0.000000	 0.365611	 0.000000
							CHANNELS 3 Zrotation Xrotation Yrotation
							JOINT RightHand
							{
								OFFSET	 0.000000	 0.360648	 0.000000
								CHANNELS 3 Zrotation Xrotation Yrotation
								JOINT RightHandIndex1
								{
									OFFSET	 0.000000	 0.069977	 0.000000
									CHANNELS 3 Zrotation Xrotation Yrotation
									JOINT RightHandIndex2
									{
										OFFSET	 0.000000	 0.052305	 0.000000
										CHANNELS 3 Zrotation Xrotation Yrotation
										JOINT RightHandIndex3
										{
											OFFSET	 0.009002	 0.042196	 0.000782
											CHANNELS 3 Zrotation Xrotation Yrotation
											End Site
											{
												OFFSET	 0.009002	 0.042196	 0.000782
											}
										}
									}
								}
							}
						}
					}
				}
			}
		}
	}
}
MOTION
Frames:    6
Frame Time: 0.03333334
-0.006862	 1.233449	 0.011287	 1.961222	 0.344483	 171.898000	-174.094100	 18.498760	 2.938098	 9.436783	-31.627130	 4.663705	-22.082370	 74.601290	 13.521080	 1.161708	 26.684950	-2.659532	-171.450700	 10.946230	-11.474680	-2.653799	-31.475160	 7.599249	 4.014978	 79.975520	-4.487959	-1.288689	 28.368480	 2.710389	 2.285635	 6.311643	 1.418862	 0.438490	 3.899892	 0.929610	 1.466636	-3.388665	 0.605376	-113.058800	 6.503121	 92.949390	 18.063730	 51.652700	 6.603178	 14.794690	-0.757059	 0.014464	 16.452510	-19.357410	 12.371250	 0.667318	 8.322974	-0.355039	-5.948273	 13.651830	 1.525913	 4.991325	-3.395743	-0.331885	 3.181951	-6.828553	 0.893349	-1.257304	-5.503253	 3.637320	 123.367500	 10.388490	-96.373860	-6.981192	 45.553100	-2.461313	-8.029876	-0.315053	 0.036604	-7.753155	-24.351790	-24.390270	-2.346123	 4.965422	 0.894740	 12.553420	 23.109590	-5.210474	-8.502169	 13.274480	-0.536375
-0.007080	 1.233870	 0.011662	 1.897321	 0.217083	 171.294800	-173.942000	 18.457570	 2.297040	 9.419215	-31.579930	 4.408617	-22.736840	 74.378640	 14.200150	 1.161178	 26.677770	-2.659322	-171.387200	 11.303320	-11.864780	-2.673761	-31.740910	 7.341830	 2.818037	 79.944960	-3.153474	-1.288182	 28.361800	 2.710175	 2.444601	 6.262572	 1.329755	 0.286331	 3.855431	 0.995932	 1.561356	-3.473015	 0.731080	-112.827700	 6.535664	 92.973600	 17.774460	 51.967970	 7.111163	 15.148690	-0.774751	 0.019183	 16.718790	-20.381860	 12.572610	 0.846653	 7.766029	-0.352486	-5.946011	 13.776900	 1.539325	 5.000363	-3.196957	-0.327114	 3.175396	-6.833436	 0.931112	-1.263597	-5.614423	 3.926039	 123.212600	 10.413690	-96.357600	-6.310512	 45.619270	-2.761039	-9.017457	-0.353429	 0.030748	-7.967652	-25.356640	-24.205220	-2.411008	 5.168631	 0.892340	 12.593480	 23.645770	-5.340759	-8.505854	 13.713350	-0.564097
-0.007375	 1.234276	 0.012240	 1.814700	 0.046342	 170.481100	-173.730500	 18.399060	 1.428663	 9.391928	-31.506480	 4.063720	-23.611540	 74.098740	 15.112680	 1.160465	 26.668130	-2.659039	-171.286600	 11.776080	-12.391560	-2.698324	-32.072050	 6.996830	 1.203188	 79.911760	-1.366138	-1.287500	 28.352840	 2.709886	 2.660922	 6.195990	 1.155655	 0.191860	 3.824792	 1.029545	 1.638823	-3.599950	 0.899352	-112.517100	 6.579561	 93.005940	 17.552140	 52.427410	 7.670436	 15.422980	-0.788462	 0.022931	 17.136500	-21.820650	 12.744490	 1.087556	 7.016917	-0.346286	-5.943017	 13.945020	 1.557358	 5.012483	-2.929739	-0.320751	 3.166589	-6.840007	 0.981871	-1.271141	-5.763878	 4.314391	 123.004300	 10.447500	-96.335650	-5.859765	 45.680450	-2.841853	-9.776685	-0.382965	 0.025848	-8.574090	-26.700540	-24.091190	-2.498252	 5.441803	 0.889477	 12.649730	 24.366760	-5.517494	-8.510477	 14.303490	-0.601411
-0.007703	 1.234643	 0.012941	 1.727725	-0.142453	 169.584500	-173.490700	 18.332120	 0.470019	 9.357536	-31.413840	 3.682767	-24.541040	 73.797230	 16.089350	 1.159684	 26.657560	-2.658729	-171.157200	 12.286210	-12.972830	-2.722342	-32.401730	 6.619652	-0.581444	 79.863950	 0.592165	-1.286752	 28.343010	 2.709570	 2.901550	 6.122137	 0.899514	 0.217546	 3.826880	 1.038701	 1.662684	-3.756323	 1.044842	-112.176300	 6.627940	 93.041180	 17.405650	 52.961800	 8.215672	 15.620180	-0.798259	 0.025680	 17.585600	-23.464370	 12.809090	 1.351749	 6.194410	-0.335840	-5.939790	 14.129490	 1.577149	 5.025746	-2.636518	-0.313836	 3.156934	-6.847226	 1.037563	-1.278202	-5.927962	 4.740827	 122.775700	 10.484500	-96.311420	-5.675493	 45.714040	-2.707535	-10.261500	-0.401641	 0.022532	-9.462465	-28.149100	-24.129380	-2.594017	 5.741560	 0.886816	 12.714700	 25.158180	-5.713624	-8.515110	 14.951260	-0.642429
-0.008112	 1.235049	 0.013862	 1.626567	-0.371958	 168.492900	-173.190700	 18.244110	-0.698352	 9.310043	-31.285410	 3.217533	-25.615660	 73.430020	 17.228840	 1.158736	 26.644720	-2.658353	-170.976800	 12.889860	-13.681050	-2.747559	-32.756340	 6.163912	-2.752248	 79.780130	 2.953492	-1.285845	 28.331070	 2.709187	 3.197582	 6.031407	 0.509246	 0.402588	 3.888650	 0.885676	 1.627441	-3.971256	 1.304834	-111.762700	 6.686935	 93.083530	 17.302790	 53.632370	 8.824865	 15.803770	-0.807410	 0.028238	 18.067250	-25.525490	 12.731580	 1.672203	 5.195881	-0.318060	-5.935960	 14.353300	 1.601167	 5.041786	-2.280746	-0.305539	 3.145229	-6.855995	 1.105129	-1.285057	-6.127196	 5.258589	 122.498200	 10.529250	-96.281810	-5.724695	 45.712790	-2.347807	-10.584290	-0.414121	 0.020244	-10.748700	-29.853320	-24.378460	-2.710263	 6.105274	 0.884261	 12.798200	 26.118680	-5.954823	-8.520101	 15.737480	-0.692311
-0.008592	 1.235502	 0.014964	 1.516148	-0.634903	 167.253900	-172.841400	 18.136250	-2.025372	 9.248790	-31.119300	 2.687248	-26.757500	 73.008420	 18.453780	 1.157664	 26.630210	-2.657928	-170.745500	 13.553580	-14.394770	-2.830556	-33.095910	 5.542055	-5.190574	 79.647080	 5.583391	-1.284820	 28.317570	 2.708753	 3.537242	 5.927287	-0.017370	 0.772838	 4.035244	 0.672002	 1.512043	-4.252368	 1.553582	-111.294800	 6.754034	 93.130920	 17.248440	 54.393510	 9.469803	 15.997090	-0.817081	 0.030943	 18.496090	-27.910470	 12.465900	 2.034784	 4.065703	-0.291208	-5.931740	 14.606490	 1.628348	 5.059865	-1.878256	-0.296275	 3.132000	-6.865933	 1.181562	-1.290552	-6.352631	 5.844750	 122.184300	 10.579740	-96.248020	-6.018688	 45.663930	-1.767930	-10.752190	-0.420598	 0.018969	-12.407150	-31.693620	-24.883850	-2.841852	 6.516754	 0.882264	 12.899050	 27.205470	-6.232196	-8.524915	 16.627210	-0.748915
